<svg xmlns="http://www.w3.org/2000/svg" xmlns:xlink="http://www.w3.org/1999/xlink" width="500" zoomAndPan="magnify" viewBox="0 0 375 374.999991" height="500" preserveAspectRatio="xMidYMid meet" version="1.0"><defs><clipPath id="id1"><path d="M 13.945312 43 L 360 43 L 360 333.992188 L 13.945312 333.992188 Z M 13.945312 43 " clip-rule="nonzero"/></clipPath></defs><rect x="-37.5" width="450" fill="#ffffff" y="-37.499999" height="449.999989" fill-opacity="1"/><rect x="-37.5" width="450" fill="#ffffff" y="-37.499999" height="449.999989" fill-opacity="1"/><rect x="-37.5" width="450" fill="#ffffff" y="-37.499999" height="449.999989" fill-opacity="1"/><g clip-path="url(#id1)"><path fill="#5ce1e6" d="M 358.664062 116.164062 C 358.191406 108.003906 361.191406 98.878906 355.761719 91.78125 C 346.253906 89.167969 336.773438 86.519531 327.234375 84.183594 C 326.734375 72.382812 327.671875 60.550781 326.800781 48.78125 C 325.429688 40.75 315.640625 43.546875 309.960938 43.488281 C 260.761719 45.945312 215.425781 73.75 186.492188 112.828125 C 155.371094 70.484375 104.363281 41.304688 50.953125 43.480469 C 49.890625 44.382812 47.742188 46.1875 46.648438 47.09375 C 45.023438 59.332031 46.554688 71.820312 45.898438 84.148438 C 35.082031 88.507812 19.09375 87.824219 13.945312 100.28125 C 15.972656 105.203125 16.441406 110.527344 16.222656 115.820312 C 15.753906 178.28125 16.65625 240.71875 15.785156 303.152344 C 14.972656 307.855469 15.84375 316.171875 22.609375 314.710938 C 44.46875 306.769531 68.007812 303.902344 91.203125 305.246094 C 122.726562 307.703125 155.464844 315.085938 181.371094 333.953125 C 183.898438 333.953125 188.917969 333.953125 191.410156 333.984375 C 205.753906 322.992188 223.148438 317.015625 240.328125 312.0625 C 277.152344 301.757812 316.90625 302.71875 353.101562 315.082031 C 360.832031 313.777344 358.746094 305.304688 358.8125 299.695312 C 358.480469 238.539062 358.757812 177.347656 358.664062 116.164062 Z M 29.378906 297.792969 C 29.570312 233.304688 29.347656 168.78125 29.472656 104.296875 C 34.992188 102.332031 40.542969 100.375 46.089844 98.441406 C 45.96875 149.945312 46 201.453125 46.0625 252.957031 C 45.347656 262.328125 57.070312 260.675781 63.179688 261.269531 C 99.664062 262.792969 132.867188 281.324219 159.371094 305.394531 C 118.457031 288.890625 71.875 285.152344 29.378906 297.792969 Z M 207.472656 308.695312 C 227.707031 288.921875 251.03125 271.175781 278.75 263.542969 C 293.03125 258.714844 308.148438 258.25 322.992188 256.847656 C 327.792969 256.253906 326.796875 250.277344 327.140625 246.914062 C 327.109375 197.648438 327.078125 148.390625 327.109375 99.125 C 333.0625 100.929688 339.019531 102.734375 345.003906 104.480469 C 345.847656 168.96875 345.035156 233.492188 345.40625 297.976562 C 300.046875 285.433594 250.503906 289.917969 207.472656 308.695312 Z M 207.472656 308.695312 " fill-opacity="1" fill-rule="nonzero"/></g></svg>