<svg xmlns="http://www.w3.org/2000/svg" xmlns:xlink="http://www.w3.org/1999/xlink" width="500" zoomAndPan="magnify" viewBox="0 0 375 262.499992" height="350" preserveAspectRatio="xMidYMid meet" version="1.0"><defs><clipPath id="id1"><path d="M 0.355469 0 L 374.640625 0 L 374.640625 262 L 0.355469 262 Z M 0.355469 0 " clip-rule="nonzero"/></clipPath><clipPath id="id2"><path d="M 2.507812 4.050781 L 372.304688 4.050781 L 372.304688 257.816406 L 2.507812 257.816406 Z M 2.507812 4.050781 " clip-rule="nonzero"/></clipPath></defs><g clip-path="url(#id1)"><path fill="#ffffff" d="M 0.355469 0 L 374.644531 0 L 374.644531 269.488281 L 0.355469 269.488281 Z M 0.355469 0 " fill-opacity="1" fill-rule="nonzero"/><path fill="#ffffff" d="M 0.355469 0 L 374.644531 0 L 374.644531 262 L 0.355469 262 Z M 0.355469 0 " fill-opacity="1" fill-rule="nonzero"/><path fill="#ffffff" d="M 0.355469 0 L 374.644531 0 L 374.644531 262 L 0.355469 262 Z M 0.355469 0 " fill-opacity="1" fill-rule="nonzero"/></g><g clip-path="url(#id2)"><path fill="#5ce1e6" d="M 119.695312 148.5 C 119.695312 110.960938 150.125 80.511719 187.664062 80.511719 C 225.199219 80.511719 255.628906 110.960938 255.628906 148.5 C 255.628906 186.035156 225.199219 216.445312 187.664062 216.445312 C 150.125 216.445312 119.695312 186.035156 119.695312 148.5 Z M 58.640625 4.230469 L 78.164062 4.230469 C 87.203125 4.230469 94.589844 11.617188 94.589844 20.660156 L 94.589844 29.765625 L 42.214844 29.765625 L 42.214844 20.660156 C 42.214844 11.617188 49.601562 4.230469 58.640625 4.230469 Z M 202.480469 155.347656 C 193.160156 155.347656 185.601562 147.8125 185.601562 138.492188 C 185.601562 129.171875 193.160156 121.613281 202.480469 121.613281 C 211.800781 121.613281 219.359375 129.171875 219.359375 138.492188 C 219.359375 147.8125 211.800781 155.347656 202.480469 155.347656 Z M 235.722656 148.476562 C 235.722656 121.933594 214.207031 100.417969 187.664062 100.417969 C 161.121094 100.417969 139.625 121.933594 139.625 148.476562 C 139.625 175.019531 161.121094 196.515625 187.664062 196.515625 C 214.207031 196.515625 235.722656 175.019531 235.722656 148.476562 Z M 296.046875 91.675781 C 292.867188 91.675781 290.289062 89.078125 290.289062 85.898438 C 290.289062 82.679688 292.867188 80.125 296.046875 80.125 L 327.699219 80.125 C 330.878906 80.125 333.457031 82.679688 333.457031 85.898438 C 333.457031 89.078125 330.878906 91.675781 327.699219 91.675781 Z M 117.613281 39.320312 L 32.636719 39.320312 C 15.992188 39.320312 2.507812 52.828125 2.507812 69.492188 L 2.507812 227.503906 C 2.507812 244.167969 15.992188 257.65625 32.636719 257.65625 L 342.195312 257.65625 C 358.816406 257.65625 372.324219 244.167969 372.324219 227.503906 L 372.324219 69.492188 C 372.324219 52.828125 358.816406 39.320312 342.195312 39.320312 L 257.242188 39.320312 C 252.6875 19.628906 235.078125 4.917969 214.011719 4.917969 L 160.820312 4.917969 C 139.753906 4.917969 122.144531 19.628906 117.613281 39.320312 Z M 327.699219 71.039062 L 296.046875 71.039062 C 292.867188 71.039062 290.289062 68.441406 290.289062 65.261719 C 290.289062 62.042969 292.867188 59.484375 296.046875 59.484375 L 327.699219 59.484375 C 330.878906 59.484375 333.457031 62.042969 333.457031 65.261719 C 333.457031 68.441406 330.878906 71.039062 327.699219 71.039062 Z M 327.699219 71.039062 " fill-opacity="1" fill-rule="nonzero"/></g></svg>