<svg xmlns="http://www.w3.org/2000/svg" xmlns:xlink="http://www.w3.org/1999/xlink" width="500" zoomAndPan="magnify" viewBox="0 0 375 374.999991" height="500" preserveAspectRatio="xMidYMid meet" version="1.0"><defs><clipPath id="id1"><path d="M 179 32.867188 L 196 32.867188 L 196 98 L 179 98 Z M 179 32.867188 " clip-rule="nonzero"/></clipPath><clipPath id="id2"><path d="M 32.867188 179 L 98 179 L 98 196 L 32.867188 196 Z M 32.867188 179 " clip-rule="nonzero"/></clipPath><clipPath id="id3"><path d="M 179 276 L 196 276 L 196 341.867188 L 179 341.867188 Z M 179 276 " clip-rule="nonzero"/></clipPath><clipPath id="id4"><path d="M 276 179 L 341.867188 179 L 341.867188 196 L 276 196 Z M 276 179 " clip-rule="nonzero"/></clipPath></defs><rect x="-37.5" width="450" fill="#ffffff" y="-37.499999" height="449.999989" fill-opacity="1"/><rect x="-37.5" width="450" fill="#ffffff" y="-37.499999" height="449.999989" fill-opacity="1"/><rect x="-37.5" width="450" fill="#ffffff" y="-37.499999" height="449.999989" fill-opacity="1"/><path fill="#5ce1e6" d="M 187.367188 109.0625 C 144.125 109.0625 109.0625 144.125 109.0625 187.367188 C 109.0625 230.609375 144.125 265.675781 187.367188 265.675781 C 230.609375 265.675781 265.675781 230.609375 265.675781 187.367188 C 265.675781 144.125 230.609375 109.0625 187.367188 109.0625 " fill-opacity="1" fill-rule="nonzero"/><g clip-path="url(#id1)"><path fill="#5ce1e6" d="M 192.769531 97.882812 C 192.769531 81 183.550781 83.835938 192.285156 63.375 C 194.097656 59.167969 195.789062 55.183594 195.605469 52.242188 C 195.214844 46.222656 191.066406 44.019531 190.324219 38.648438 C 189.660156 34.300781 189.027344 32.839844 187.777344 32.839844 C 186.417969 32.839844 185.707031 34.484375 185.210938 38.722656 C 184.5 48.621094 192.300781 45.558594 184.125 62.019531 C 173.714844 83.066406 182.765625 81.890625 182.765625 97.882812 L 192.769531 97.882812 " fill-opacity="1" fill-rule="nonzero"/></g><path fill="#5ce1e6" d="M 162.414062 64.492188 C 155.804688 87.019531 164.523438 84.289062 167.300781 100.039062 L 177.152344 98.304688 C 174.226562 81.675781 165.625 86.066406 170.679688 64.402344 C 171.722656 59.949219 172.71875 55.726562 172.007812 52.859375 C 170.589844 47.003906 166.109375 45.558594 164.449219 40.398438 C 163.0625 36.234375 162.171875 34.90625 160.933594 35.117188 C 159.605469 35.359375 159.183594 37.09375 159.441406 41.347656 C 160.453125 51.230469 167.601562 46.855469 162.414062 64.492188 " fill-opacity="1" fill-rule="nonzero"/><path fill="#5ce1e6" d="M 141.457031 70.695312 C 138.859375 94.035156 146.964844 89.824219 152.441406 104.851562 L 161.839844 101.425781 C 156.0625 85.554688 148.367188 91.378906 149.589844 69.167969 C 149.828125 64.597656 150.070312 60.28125 148.894531 57.566406 C 146.464844 52.046875 141.816406 51.410156 139.269531 46.597656 C 137.1875 42.75 136.070312 41.589844 134.894531 42.027344 C 133.625 42.480469 133.519531 44.273438 134.5 48.425781 C 137.214844 57.960938 143.492188 52.421875 141.457031 70.695312 " fill-opacity="1" fill-rule="nonzero"/><path fill="#5ce1e6" d="M 121.886719 80.441406 C 123.394531 103.871094 130.652344 98.320312 138.648438 112.171875 L 147.308594 107.175781 C 138.859375 92.539062 132.28125 99.617188 129.625 77.527344 C 129.082031 72.972656 128.570312 68.6875 126.941406 66.226562 C 123.589844 61.203125 118.898438 61.382812 115.566406 57.097656 C 112.835938 53.660156 111.535156 52.707031 110.449219 53.34375 C 109.289062 54.023438 109.484375 55.785156 111.175781 59.710938 C 115.503906 68.640625 120.726562 62.09375 121.886719 80.441406 " fill-opacity="1" fill-rule="nonzero"/><path fill="#5ce1e6" d="M 104.324219 93.429688 C 109.863281 116.242188 116.046875 109.53125 126.324219 121.78125 L 133.988281 115.339844 C 123.140625 102.410156 117.886719 110.511719 111.429688 89.222656 C 110.101562 84.832031 108.851562 80.695312 106.8125 78.554688 C 102.648438 74.195312 98.0625 75.191406 94.035156 71.539062 C 90.746094 68.640625 89.3125 67.933594 88.347656 68.730469 C 87.320312 69.605469 87.820312 71.3125 90.171875 74.886719 C 95.980469 82.929688 99.996094 75.566406 104.324219 93.429688 " fill-opacity="1" fill-rule="nonzero"/><path fill="#5ce1e6" d="M 89.265625 109.273438 C 98.683594 130.789062 103.617188 123.09375 115.867188 133.367188 L 122.292969 125.703125 C 109.347656 114.855469 105.605469 123.742188 95.542969 103.902344 C 93.476562 99.8125 91.53125 95.949219 89.144531 94.199219 C 84.289062 90.625 79.925781 92.40625 75.339844 89.507812 C 71.597656 87.214844 70.058594 86.777344 69.246094 87.726562 C 68.386719 88.769531 69.183594 90.367188 72.113281 93.476562 C 79.234375 100.371094 81.902344 92.433594 89.265625 109.273438 " fill-opacity="1" fill-rule="nonzero"/><path fill="#5ce1e6" d="M 57.550781 114.902344 C 65.773438 120.46875 67.027344 112.199219 77.195312 127.5 C 90.21875 147.039062 93.71875 138.621094 107.570312 146.617188 L 112.578125 137.941406 C 97.941406 129.507812 95.785156 138.90625 82.445312 121.101562 C 79.699219 117.449219 77.105469 113.980469 74.464844 112.667969 C 69.0625 109.996094 65.082031 112.503906 60.042969 110.449219 C 55.96875 108.851562 54.367188 108.667969 53.75 109.757812 C 53.070312 110.917969 54.128906 112.367188 57.550781 114.902344 " fill-opacity="1" fill-rule="nonzero"/><path fill="#5ce1e6" d="M 46.945312 138.542969 C 55.996094 142.601562 55.800781 134.230469 68.476562 147.535156 C 84.679688 164.523438 86.6875 155.625 101.714844 161.085938 L 105.125 151.683594 C 89.25 145.90625 88.769531 155.546875 72.535156 140.339844 C 69.199219 137.199219 66.046875 134.242188 63.210938 133.414062 C 57.417969 131.722656 53.929688 134.878906 48.621094 133.730469 C 44.320312 132.855469 42.71875 132.960938 42.296875 134.136719 C 41.832031 135.40625 43.128906 136.644531 46.945312 138.542969 " fill-opacity="1" fill-rule="nonzero"/><path fill="#5ce1e6" d="M 40.609375 163.679688 C 50.234375 166.09375 48.574219 157.886719 63.359375 168.796875 C 82.28125 182.707031 82.703125 173.578125 98.441406 176.355469 L 100.175781 166.5 C 83.546875 163.574219 84.742188 173.15625 66.105469 160.996094 C 62.273438 158.488281 58.652344 156.121094 55.726562 155.789062 C 49.738281 155.125 46.839844 158.835938 41.421875 158.640625 C 37.03125 158.519531 35.476562 158.898438 35.253906 160.132812 C 35.027344 161.460938 36.519531 162.457031 40.609375 163.679688 " fill-opacity="1" fill-rule="nonzero"/><g clip-path="url(#id2)"><path fill="#5ce1e6" d="M 62.019531 190.613281 C 83.066406 201.023438 81.890625 191.96875 97.882812 191.96875 L 97.882812 181.96875 C 81 181.96875 83.835938 191.183594 63.375 182.449219 C 59.167969 180.640625 55.183594 178.949219 52.242188 179.128906 C 46.222656 179.523438 44.019531 183.671875 38.648438 184.410156 C 34.300781 185.074219 32.839844 185.707031 32.839844 186.960938 C 32.839844 188.320312 34.484375 189.027344 38.722656 189.527344 C 48.621094 190.234375 45.558594 182.433594 62.019531 190.613281 " fill-opacity="1" fill-rule="nonzero"/></g><path fill="#5ce1e6" d="M 64.492188 212.324219 C 87.019531 218.933594 84.289062 210.210938 100.039062 207.433594 L 98.304688 197.582031 C 81.675781 200.511719 86.066406 209.109375 64.402344 204.054688 C 59.949219 203.015625 55.726562 202.019531 52.859375 202.726562 C 47.003906 204.144531 45.558594 208.628906 40.398438 210.285156 C 36.234375 211.675781 34.90625 212.566406 35.117188 213.800781 C 35.359375 215.128906 37.09375 215.550781 41.347656 215.296875 C 51.230469 214.285156 46.855469 207.132812 64.492188 212.324219 " fill-opacity="1" fill-rule="nonzero"/><path fill="#5ce1e6" d="M 70.695312 233.28125 C 94.035156 235.875 89.824219 227.773438 104.851562 222.296875 L 101.425781 212.898438 C 85.554688 218.675781 91.378906 226.371094 69.167969 225.148438 C 64.597656 224.90625 60.28125 224.664062 57.566406 225.84375 C 52.046875 228.273438 51.410156 232.917969 46.597656 235.46875 C 42.75 237.550781 41.589844 238.667969 42.027344 239.84375 C 42.480469 241.113281 44.273438 241.21875 48.425781 240.234375 C 57.960938 237.519531 52.421875 231.242188 70.695312 233.28125 " fill-opacity="1" fill-rule="nonzero"/><path fill="#5ce1e6" d="M 112.171875 236.085938 L 107.175781 227.425781 C 92.539062 235.875 99.617188 242.453125 77.527344 245.109375 C 72.972656 245.652344 68.6875 246.164062 66.226562 247.796875 C 61.203125 251.144531 61.382812 255.835938 57.097656 259.171875 C 53.660156 261.902344 52.707031 263.199219 53.34375 264.285156 C 54.023438 265.449219 55.785156 265.253906 59.710938 263.5625 C 68.640625 259.230469 62.09375 254.011719 80.441406 252.851562 C 103.871094 251.339844 98.320312 244.082031 112.171875 236.085938 " fill-opacity="1" fill-rule="nonzero"/><path fill="#5ce1e6" d="M 121.78125 248.414062 L 115.339844 240.75 C 102.410156 251.597656 110.511719 256.847656 89.222656 263.304688 C 84.832031 264.632812 80.695312 265.886719 78.554688 267.921875 C 74.195312 272.070312 75.191406 276.671875 71.539062 280.703125 C 68.640625 283.992188 67.933594 285.425781 68.730469 286.390625 C 69.605469 287.417969 71.3125 286.917969 74.886719 284.566406 C 82.929688 278.753906 75.566406 274.742188 93.429688 270.410156 C 116.242188 264.875 109.53125 258.6875 121.78125 248.414062 " fill-opacity="1" fill-rule="nonzero"/><path fill="#5ce1e6" d="M 133.367188 258.871094 L 125.703125 252.441406 C 114.855469 265.386719 123.742188 269.128906 103.902344 279.191406 C 99.8125 281.261719 95.949219 283.207031 94.199219 285.589844 C 90.625 290.449219 92.40625 294.808594 89.507812 299.394531 C 87.214844 303.136719 86.777344 304.675781 87.726562 305.492188 C 88.769531 306.351562 90.367188 305.550781 93.476562 302.625 C 100.371094 295.503906 92.433594 292.832031 109.273438 285.46875 C 130.789062 276.054688 123.09375 271.121094 133.367188 258.871094 " fill-opacity="1" fill-rule="nonzero"/><path fill="#5ce1e6" d="M 146.617188 267.167969 L 137.941406 262.160156 C 129.507812 276.792969 138.90625 278.9375 121.101562 292.289062 C 117.449219 295.035156 113.980469 297.628906 112.667969 300.269531 C 109.996094 305.671875 112.503906 309.65625 110.449219 314.695312 C 108.851562 318.769531 108.667969 320.367188 109.757812 320.988281 C 110.917969 321.664062 112.367188 320.609375 114.917969 317.183594 C 120.46875 308.960938 112.199219 307.710938 127.5 297.539062 C 147.039062 284.519531 138.621094 281.019531 146.617188 267.167969 " fill-opacity="1" fill-rule="nonzero"/><path fill="#5ce1e6" d="M 151.683594 269.613281 C 145.90625 285.484375 155.546875 285.96875 140.339844 302.203125 C 137.199219 305.535156 134.242188 308.691406 133.414062 311.527344 C 131.722656 317.320312 134.878906 320.804688 133.730469 326.117188 C 132.855469 330.417969 132.960938 332.015625 134.136719 332.4375 C 135.40625 332.90625 136.644531 331.609375 138.542969 327.792969 C 142.601562 318.738281 134.230469 318.933594 147.535156 306.261719 C 164.523438 290.054688 155.625 288.050781 161.085938 273.023438 L 151.683594 269.613281 " fill-opacity="1" fill-rule="nonzero"/><path fill="#5ce1e6" d="M 176.355469 276.296875 L 166.5 274.5625 C 163.574219 291.1875 173.15625 289.996094 160.996094 308.628906 C 158.488281 312.460938 156.121094 316.082031 155.789062 319.011719 C 155.125 325 158.835938 327.898438 158.640625 333.3125 C 158.519531 337.703125 158.898438 339.257812 160.132812 339.484375 C 161.460938 339.710938 162.457031 338.21875 163.679688 334.128906 C 166.09375 324.503906 157.886719 326.160156 168.796875 311.375 C 182.707031 292.457031 173.578125 292.03125 176.355469 276.296875 " fill-opacity="1" fill-rule="nonzero"/><g clip-path="url(#id3)"><path fill="#5ce1e6" d="M 181.96875 276.855469 C 181.96875 293.738281 191.183594 290.902344 182.449219 311.359375 C 180.640625 315.570312 178.949219 319.554688 179.128906 322.496094 C 179.523438 328.515625 183.671875 330.71875 184.410156 336.089844 C 185.074219 340.433594 185.707031 341.898438 186.960938 341.898438 C 188.320312 341.898438 189.027344 340.253906 189.527344 336.015625 C 190.234375 326.117188 182.433594 329.179688 190.613281 312.71875 C 201.023438 291.671875 191.96875 292.847656 191.96875 276.855469 L 181.96875 276.855469 " fill-opacity="1" fill-rule="nonzero"/></g><path fill="#5ce1e6" d="M 212.324219 310.242188 C 218.933594 287.71875 210.210938 290.449219 207.433594 274.695312 L 197.582031 276.433594 C 200.511719 293.058594 209.109375 288.667969 204.054688 310.335938 C 203.015625 314.785156 202.019531 319.011719 202.726562 321.875 C 204.144531 327.730469 208.628906 329.179688 210.285156 334.339844 C 211.675781 338.503906 212.566406 339.832031 213.800781 339.621094 C 215.128906 339.378906 215.550781 337.644531 215.296875 333.390625 C 214.285156 323.507812 207.132812 327.882812 212.324219 310.242188 " fill-opacity="1" fill-rule="nonzero"/><path fill="#5ce1e6" d="M 233.28125 304.042969 C 235.875 280.703125 227.773438 284.910156 222.296875 269.882812 L 212.898438 273.308594 C 218.675781 289.179688 226.371094 283.359375 225.148438 305.566406 C 224.90625 310.136719 224.664062 314.453125 225.84375 317.167969 C 228.273438 322.691406 232.917969 323.324219 235.46875 328.136719 C 237.550781 331.984375 238.667969 333.148438 239.84375 332.710938 C 241.113281 332.257812 241.21875 330.460938 240.234375 326.3125 C 237.519531 316.777344 231.242188 322.3125 233.28125 304.042969 " fill-opacity="1" fill-rule="nonzero"/><path fill="#5ce1e6" d="M 252.851562 294.296875 C 251.339844 270.863281 244.082031 276.417969 236.085938 262.566406 L 227.425781 267.558594 C 235.875 282.195312 242.453125 275.121094 245.109375 297.207031 C 245.652344 301.765625 246.164062 306.050781 247.796875 308.507812 C 251.144531 313.535156 255.835938 313.351562 259.171875 317.636719 C 261.902344 321.078125 263.199219 322.027344 264.285156 321.394531 C 265.449219 320.714844 265.253906 318.949219 263.5625 315.027344 C 259.230469 306.09375 254.011719 312.644531 252.851562 294.296875 " fill-opacity="1" fill-rule="nonzero"/><path fill="#5ce1e6" d="M 270.410156 281.304688 C 264.875 258.492188 258.6875 265.207031 248.414062 252.957031 L 240.75 259.398438 C 251.597656 272.328125 256.847656 264.226562 263.304688 285.515625 C 264.632812 289.90625 265.886719 294.039062 267.921875 296.183594 C 272.085938 300.542969 276.671875 299.546875 280.703125 303.199219 C 283.992188 306.09375 285.425781 306.804688 286.390625 306.003906 C 287.417969 305.128906 286.917969 303.425781 284.566406 299.847656 C 278.753906 291.808594 274.742188 299.167969 270.410156 281.304688 " fill-opacity="1" fill-rule="nonzero"/><path fill="#5ce1e6" d="M 285.46875 265.464844 C 276.054688 243.949219 271.121094 251.644531 258.871094 241.367188 L 252.441406 249.03125 C 265.386719 259.878906 269.144531 250.992188 279.191406 270.835938 C 281.261719 274.921875 283.207031 278.785156 285.589844 280.535156 C 290.449219 284.113281 294.808594 282.332031 299.394531 285.226562 C 303.136719 287.523438 304.675781 287.960938 305.492188 287.007812 C 306.351562 285.96875 305.550781 284.367188 302.625 281.261719 C 295.503906 274.363281 292.832031 282.300781 285.46875 265.464844 " fill-opacity="1" fill-rule="nonzero"/><path fill="#5ce1e6" d="M 317.183594 259.820312 C 308.960938 254.269531 307.710938 262.535156 297.539062 247.238281 C 284.519531 227.699219 281.019531 236.117188 267.167969 228.121094 L 262.160156 236.796875 C 276.792969 245.230469 278.953125 235.832031 292.289062 253.632812 C 295.035156 257.285156 297.628906 260.753906 300.269531 262.070312 C 305.671875 264.738281 309.65625 262.234375 314.695312 264.285156 C 318.769531 265.886719 320.367188 266.066406 320.988281 264.980469 C 321.664062 263.820312 320.609375 262.371094 317.183594 259.820312 " fill-opacity="1" fill-rule="nonzero"/><path fill="#5ce1e6" d="M 327.792969 236.191406 C 318.738281 232.132812 318.933594 240.507812 306.261719 227.199219 C 290.054688 210.210938 288.050781 219.113281 273.023438 213.652344 L 269.613281 223.050781 C 285.484375 228.828125 285.96875 219.1875 302.203125 234.398438 C 305.535156 237.535156 308.691406 240.492188 311.527344 241.324219 C 317.320312 243.011719 320.804688 239.859375 326.117188 241.003906 C 330.417969 241.878906 332.015625 241.773438 332.4375 240.597656 C 332.90625 239.332031 331.609375 238.09375 327.792969 236.191406 " fill-opacity="1" fill-rule="nonzero"/><path fill="#5ce1e6" d="M 334.128906 211.054688 C 324.503906 208.640625 326.160156 216.851562 311.375 205.941406 C 292.457031 192.03125 292.03125 201.160156 276.296875 198.382812 L 274.5625 208.234375 C 291.1875 211.160156 289.996094 201.582031 308.628906 213.742188 C 312.460938 216.246094 316.082031 218.617188 319.011719 218.945312 C 325 219.609375 327.898438 215.898438 333.3125 216.09375 C 337.703125 216.214844 339.257812 215.839844 339.484375 214.601562 C 339.710938 213.273438 338.21875 212.277344 334.128906 211.054688 " fill-opacity="1" fill-rule="nonzero"/><g clip-path="url(#id4)"><path fill="#5ce1e6" d="M 336.015625 185.210938 C 326.117188 184.5 329.179688 192.300781 312.71875 184.125 C 291.671875 173.714844 292.847656 182.765625 276.855469 182.765625 L 276.855469 192.769531 C 293.738281 192.769531 290.902344 183.550781 311.359375 192.285156 C 315.570312 194.097656 319.554688 195.789062 322.496094 195.605469 C 328.515625 195.214844 330.71875 191.066406 336.089844 190.324219 C 340.433594 189.660156 341.898438 189.027344 341.898438 187.777344 C 341.898438 186.417969 340.253906 185.707031 336.015625 185.210938 " fill-opacity="1" fill-rule="nonzero"/></g><path fill="#5ce1e6" d="M 310.242188 162.414062 C 287.71875 155.804688 290.449219 164.523438 274.695312 167.300781 L 276.433594 177.152344 C 293.058594 174.226562 288.667969 165.625 310.335938 170.679688 C 314.785156 171.722656 319.011719 172.71875 321.875 172.007812 C 327.730469 170.589844 329.179688 166.109375 334.339844 164.449219 C 338.503906 163.0625 339.832031 162.171875 339.621094 160.933594 C 339.378906 159.605469 337.644531 159.183594 333.390625 159.441406 C 323.507812 160.453125 327.882812 167.601562 310.242188 162.414062 " fill-opacity="1" fill-rule="nonzero"/><path fill="#5ce1e6" d="M 304.042969 141.457031 C 280.703125 138.859375 284.910156 146.964844 269.882812 152.441406 L 273.308594 161.839844 C 289.179688 156.0625 283.359375 148.367188 305.566406 149.589844 C 310.136719 149.828125 314.453125 150.070312 317.167969 148.894531 C 322.691406 146.464844 323.324219 141.816406 328.136719 139.269531 C 331.984375 137.1875 333.148438 136.070312 332.710938 134.894531 C 332.257812 133.625 330.460938 133.519531 326.3125 134.5 C 316.777344 137.214844 322.3125 143.492188 304.042969 141.457031 " fill-opacity="1" fill-rule="nonzero"/><path fill="#5ce1e6" d="M 262.566406 138.648438 L 267.558594 147.308594 C 282.195312 138.859375 275.121094 132.28125 297.207031 129.625 C 301.765625 129.082031 306.050781 128.570312 308.507812 126.941406 C 313.535156 123.589844 313.351562 118.898438 317.636719 115.566406 C 321.078125 112.835938 322.027344 111.535156 321.394531 110.449219 C 320.714844 109.289062 318.949219 109.484375 315.027344 111.175781 C 306.09375 115.503906 312.644531 120.726562 294.296875 121.886719 C 270.863281 123.394531 276.417969 130.652344 262.566406 138.648438 " fill-opacity="1" fill-rule="nonzero"/><path fill="#5ce1e6" d="M 252.957031 126.324219 L 259.398438 133.988281 C 272.328125 123.140625 264.226562 117.886719 285.515625 111.429688 C 289.90625 110.101562 294.039062 108.851562 296.183594 106.8125 C 300.542969 102.648438 299.546875 98.0625 303.199219 94.035156 C 306.09375 90.746094 306.804688 89.3125 306.003906 88.347656 C 305.128906 87.320312 303.425781 87.820312 299.847656 90.171875 C 291.808594 95.980469 299.167969 99.996094 281.304688 104.324219 C 258.492188 109.863281 265.207031 116.046875 252.957031 126.324219 " fill-opacity="1" fill-rule="nonzero"/><path fill="#5ce1e6" d="M 241.367188 115.867188 L 249.03125 122.292969 C 259.878906 109.347656 250.992188 105.59375 270.835938 95.542969 C 274.921875 93.476562 278.785156 91.53125 280.535156 89.144531 C 284.113281 84.289062 282.332031 79.925781 285.226562 75.339844 C 287.523438 71.597656 287.960938 70.058594 287.007812 69.246094 C 285.96875 68.386719 284.367188 69.183594 281.261719 72.113281 C 274.363281 79.234375 282.300781 81.902344 265.464844 89.265625 C 243.949219 98.683594 251.644531 103.617188 241.367188 115.867188 " fill-opacity="1" fill-rule="nonzero"/><path fill="#5ce1e6" d="M 228.121094 107.570312 L 236.796875 112.578125 C 245.230469 97.941406 235.832031 95.785156 253.632812 82.445312 C 257.285156 79.699219 260.753906 77.105469 262.070312 74.464844 C 264.738281 69.0625 262.234375 65.082031 264.285156 60.042969 C 265.886719 55.96875 266.066406 54.367188 264.980469 53.75 C 263.820312 53.070312 262.371094 54.128906 259.820312 57.550781 C 254.269531 65.773438 262.535156 67.027344 247.238281 77.195312 C 227.699219 90.21875 236.117188 93.71875 228.121094 107.570312 " fill-opacity="1" fill-rule="nonzero"/><path fill="#5ce1e6" d="M 223.050781 105.125 C 228.828125 89.25 219.1875 88.769531 234.398438 72.535156 C 237.535156 69.199219 240.492188 66.046875 241.324219 63.210938 C 243.011719 57.417969 239.859375 53.929688 241.003906 48.621094 C 241.878906 44.320312 241.773438 42.71875 240.597656 42.296875 C 239.332031 41.832031 238.09375 43.128906 236.191406 46.945312 C 232.132812 55.996094 240.507812 55.800781 227.199219 68.476562 C 210.210938 84.679688 219.113281 86.6875 213.652344 101.714844 L 223.050781 105.125 " fill-opacity="1" fill-rule="nonzero"/><path fill="#5ce1e6" d="M 198.382812 98.441406 L 208.234375 100.175781 C 211.160156 83.546875 201.582031 84.742188 213.742188 66.105469 C 216.246094 62.273438 218.617188 58.652344 218.945312 55.726562 C 219.609375 49.738281 215.898438 46.839844 216.09375 41.421875 C 216.214844 37.03125 215.839844 35.476562 214.601562 35.253906 C 213.273438 35.027344 212.277344 36.519531 211.054688 40.609375 C 208.640625 50.234375 216.851562 48.574219 205.941406 63.359375 C 192.03125 82.28125 201.160156 82.703125 198.382812 98.441406 " fill-opacity="1" fill-rule="nonzero"/></svg>